<svg xmlns="http://www.w3.org/2000/svg" viewBox="0 0 100 100" width="100" height="100"><defs><linearGradient id="grad5" x1="0%" y1="0%" x2="100%" y2="100%"><stop offset="0%" style="stop-color:#1d4e89;stop-opacity:1" /><stop offset="100%" style="stop-color:#3b82f6;stop-opacity:1" /></linearGradient></defs><rect width="100" height="100" fill="url(#grad5)" /><svg x="25" y="25" width="50" height="50" viewBox="0 0 24 24" fill="none" stroke="white" stroke-width="2" stroke-linecap="round" stroke-linejoin="round" opacity="0.8"><path d="M2 6c.6.5 1.2 1 2.5 1C7 7 7 5 9.5 5c2.6 0 2.6 2 5.2 2 2.5 0 2.5-2 5.2-2 1.3 0 1.9.5 2.5 1"/><path d="M2 12c.6.5 1.2 1 2.5 1 2.5 0 2.5-2 5-2 2.6 0 2.6 2 5.2 2 2.5 0 2.5-2 5.2-2 1.3 0 1.9.5 2.5 1"/><path d="M2 18c.6.5 1.2 1 2.5 1 2.5 0 2.5-2 5-2 2.6 0 2.6 2 5.2 2 2.5 0 2.5-2 5.2-2 1.3 0 1.9.5 2.5 1"/></svg></svg>