<svg xmlns="http://www.w3.org/2000/svg" viewBox="0 0 1200 400" width="1200" height="400"><defs><linearGradient id="cover_grad2" x1="0%" y1="0%" x2="100%" y2="100%"><stop offset="0%" style="stop-color:#005b96;stop-opacity:1" /><stop offset="100%" style="stop-color:#008bca;stop-opacity:1" /></linearGradient><pattern id="pattern2" x="0" y="0" width="120" height="120" patternUnits="userSpaceOnUse"><svg x="40" y="40" width="40" height="40" viewBox="0 0 24 24" fill="none" stroke="white" stroke-width="1.5" stroke-linecap="round" stroke-linejoin="round" opacity="0.05"><path d="M22 18H2a4 4 0 0 0 4 4h12a4 4 0 0 0 4-4Z"/><path d="M21 14 10 2 3 14h18Z"/><path d="M10 2v16"/></svg></pattern></defs><rect width="1200" height="400" fill="url(#cover_grad2)" /><rect width="1200" height="400" fill="url(#pattern2)" /><svg x="520" y="120" width="160" height="160" viewBox="0 0 24 24" fill="none" stroke="white" stroke-width="1.5" stroke-linecap="round" stroke-linejoin="round" opacity="0.15"><path d="M22 18H2a4 4 0 0 0 4 4h12a4 4 0 0 0 4-4Z"/><path d="M21 14 10 2 3 14h18Z"/><path d="M10 2v16"/></svg></svg>